:SAMPLES-PER-SECOND 30
:FULLY-SPECIFIED
:DEGREES
556
root  37.3146 38.9586 10.0807 179.638 -13.9738 176.725
RightUpLeg  3.13627 -22.785 -23.9364
RightLeg  8.03291 -32.0955 -0.188672
RightFoot  5.32069 -0.963073 6.92857
RightToes  5.82063e-011 0 -3.6325e-017
Spine  11.3549 -2.36794 1.13583
Spine1  13.8076 -2.94657 1.13798
HEad  -17.9756 37.2565 -23.5376
LeftShoulder1  0.511521 2.08522 -29.9687
LeftArm  0.873496 -5.33914 -40.1999
LeftForeArm  24.8885 -71.9638 -35.1039
LeftHand  0.0682259 1.39504 -2.26107
RightShoulder  -0.448396 -4.86339 26.0973
RightArm  -12.268 -24.7587 26.4033
RightForeArm  115.466 72.4845 140.952
RightHand  -0.212859 -0.444296 -4.95992
LeftUpLeg  -10.7497 24.4611 -1.12781
LeftLeg  16.4022 21.1159 2.61602
LeftFoot  -3.47908 -0.384675 5.89172
LeftToes  2.58842e-009 -1.78069e-010 3.24654e-012
557
root  36.5701 38.8182 9.87737 179.326 -17.4749 176.566
RightUpLeg  2.26971 -22.3695 -23.819
RightLeg  10.8894 -19.0287 -2.51193
RightFoot  -0.0268821 -0.745909 7.22882
RightToes  5.82063e-011 0 -3.6325e-017
Spine  10.6607 -1.76407 1.00874
Spine1  14.3593 -2.20301 0.403356
HEad  -18.8839 39.3423 -24.8618
LeftShoulder1  0.469878 2.2167 -30.4043
LeftArm  0.555216 -4.59498 -39.8868
LeftForeArm  28.0901 -72.8396 -37.0758
LeftHand  0.103567 1.52435 -3.40778
RightShoulder  -0.463278 -4.90459 26.2021
RightArm  -12.6888 -25.2064 26.5417
RightForeArm  116.32 72.6126 140.759
RightHand  -0.176748 -0.6912 -4.32119
LeftUpLeg  -10.9849 23.4772 -2.82184
LeftLeg  18.2303 18.8133 3.47093
LeftFoot  -5.27249 -0.313254 6.49511
LeftToes  2.58842e-009 -1.78069e-010 3.24654e-012
558
root  35.8656 38.7824 9.62236 178.566 -20.6093 176.53
RightUpLeg  0.5443 -15.3763 -22.217
RightLeg  14.8745 -8.64811 -2.97418
RightFoot  -3.3088 -0.200282 2.72348
RightToes  5.82063e-011 0 -3.6325e-017
Spine  10.5727 -1.33508 0.747346
Spine1  14.6794 -1.67824 -0.142726
HEad  -19.2359 41.1937 -25.2209
LeftShoulder1  0.463532 2.21674 -29.9069
LeftArm  -0.380913 -2.76755 -40.0229
LeftForeArm  30.7013 -73.7194 -39.5319
LeftHand  0.100203 1.39221 -3.1772
RightShoulder  -0.476661 -4.94055 26.3232
RightArm  -12.168 -24.0793 27.283
RightForeArm  113.425 73.4872 138.074
RightHand  -0.216199 -0.0022662 -4.70755
LeftUpLeg  -9.47571 21.066 -3.44716
LeftLeg  18.5431 18.4399 3.358
LeftFoot  -6.60758 -0.242429 6.81058
LeftToes  2.58842e-009 -1.78069e-010 3.24654e-012
559
root  35.1943 38.6708 9.3761 177.93 -24.8642 176.047
RightUpLeg  -0.811986 -8.52883 -21.3597
RightLeg  20.3716 -1.97362 -1.01294
RightFoot  -5.47913 -0.233929 3.87902
RightToes  5.82063e-011 0 -3.6325e-017
Spine  11.0135 -1.46425 -0.0878952
Spine1  14.4263 -1.88867 -0.680066
HEad  -18.8055 41.8156 -25.3714
LeftShoulder1  0.404459 2.37928 -29.8628
LeftArm  -1.43811 -1.68077 -39.6764
LeftForeArm  31.8931 -74.149 -40.9337
LeftHand  0.0863164 1.51658 -2.8774
RightShoulder  -0.449694 -4.8566 26.3513
RightArm  -11.4342 -22.8863 28.0326
RightForeArm  111.64 73.9714 136.398
RightHand  -0.229545 -0.479961 -5.41722
LeftUpLeg  -8.08841 17.426 -4.61091
LeftLeg  19.2347 18.1672 3.42904
LeftFoot  -7.99979 -0.150529 6.80425
LeftToes  2.58842e-009 -1.78069e-010 3.24654e-012
560
root  34.5541 38.6032 9.09906 177.79 -29.2857 175.776
RightUpLeg  -2.95792 -6.01371 -19.8979
RightLeg  26.2623 1.95146 0.790823
RightFoot  -6.55691 -0.286406 5.7433
RightToes  5.82063e-011 0 -3.6325e-017
Spine  10.7637 -1.6349 -0.894969
Spine1  14.5254 -2.25905 -0.872561
HEad  -18.6833 41.9034 -25.0484
LeftShoulder1  0.40117 2.39165 -29.973
LeftArm  -2.53092 -0.986149 -38.9735
LeftForeArm  32.2943 -74.424 -42.0239
LeftHand  0.121593 1.17384 -3.57841
RightShoulder  -0.438468 -4.82264 26.3403
RightArm  -11.0966 -21.7613 28.7664
RightForeArm  112.389 74.229 135.757
RightHand  -0.22308 0.0945621 -4.74243
LeftUpLeg  -6.96389 13.5482 -5.62735
LeftLeg  19.4684 17.8823 3.16062
LeftFoot  -9.20494 -0.0731191 6.89145
LeftToes  2.58842e-009 -1.78069e-010 3.24654e-012
561
root  33.9441 38.6123 8.77566 177.456 -32.9083 175.813
RightUpLeg  -5.85 -4.43973 -17.5989
RightLeg  32.1404 1.47072 0.733086
RightFoot  -7.11133 -0.253727 5.54876
RightToes  5.82063e-011 0 -3.6325e-017
Spine  10.8693 -1.2068 -1.88968
Spine1  14.4109 -2.24915 0.037851
HEad  -18.8814 41.4816 -25.2477
LeftShoulder1  0.528469 2.03269 -29.8119
LeftArm  -3.92735 0.171871 -39.3612
LeftForeArm  33.8134 -74.8594 -43.5897
LeftHand  0.137146 1.02768 -3.88749
RightShoulder  -0.428521 -4.79609 26.2395
RightArm  -11.0586 -21.0807 29.0839
RightForeArm  112.962 74.1567 136.076
RightHand  -0.191414 -0.478109 -4.51173
LeftUpLeg  -5.21837 10.8412 -5.99555
LeftLeg  18.8311 17.225 2.34248
LeftFoot  -10.0301 -0.0217787 7.1829
LeftToes  2.58842e-009 -1.78069e-010 3.24654e-012
562
root  33.2449 38.6452 8.4572 177.339 -37.5998 175.921
RightUpLeg  -8.6209 -4.80659 -15.4208
RightLeg  36.5821 -0.356474 -0.531695
RightFoot  -7.03674 -0.207217 4.25396
RightToes  5.82063e-011 0 -3.6325e-017
Spine  10.61 -1.49046 -2.13559
Spine1  14.2552 -2.72728 0.536359
HEad  -18.2782 40.0982 -24.1583
LeftShoulder1  0.441622 2.26936 -29.6678
LeftArm  -4.30962 -0.0276545 -39.8863
LeftForeArm  34.5514 -74.8653 -43.3926
LeftHand  0.0897938 0.982246 -2.49332
RightShoulder  -0.430705 -4.80273 26.2121
RightArm  -11.0243 -20.6714 29.5456
RightForeArm  112.629 73.9965 136.494
RightHand  -0.224973 -0.784791 -5.61234
LeftUpLeg  -3.41656 8.60633 -6.68975
LeftLeg  17.6398 15.0096 1.52021
LeftFoot  -10.6614 0.0187576 7.6401
LeftToes  2.58842e-009 -1.78069e-010 3.24654e-012
563
root  32.5443 38.7121 8.10828 177.066 -41.9655 175.945
RightUpLeg  -11.1211 -4.85382 -13.2312
RightLeg  38.6119 -1.53324 -1.56691
RightFoot  -6.82775 -0.174422 3.2417
RightToes  5.82063e-011 0 -3.6325e-017
Spine  10.9425 -1.59333 -2.67867
Spine1  13.8352 -3.10689 1.49599
HEad  -17.5473 37.9239 -22.3816
LeftShoulder1  0.445646 2.25708 -29.6356
LeftArm  -4.7783 -0.027652 -40.1211
LeftForeArm  35.0794 -75.1216 -44.524
LeftHand  0.0587036 1.84938 -2.29404
RightShoulder  -0.534338 -5.09828 26.7277
RightArm  -11.1559 -20.0187 29.4381
RightForeArm  113.293 73.8952 136.902
RightHand  -0.212071 -0.615853 -5.10808
LeftUpLeg  -1.12342 7.38243 -7.13895
LeftLeg  16.2135 12.3309 0.582223
LeftFoot  -11.0499 0.0458507 8.07534
LeftToes  2.58842e-009 -1.78069e-010 3.24654e-012
